HIERARCHY
ROOT hip
{
	OFFSET 0.000000 0.000000 0.000000
	CHANNELS 6 Xposition Yposition Zposition Xrotation Zrotation Yrotation 
	JOINT abdomen
	{
		OFFSET 0.000000 3.422050 0.000000
		CHANNELS 3 Xrotation Zrotation Yrotation 
		JOINT chest
		{
			OFFSET 0.000000 8.486693 -0.684411
			CHANNELS 3 Xrotation Zrotation Yrotation 
			JOINT neck
			{
				OFFSET 0.000000 10.266162 -0.273764
				CHANNELS 3 Xrotation Zrotation Yrotation 
				JOINT head
				{
					OFFSET 0.000000 3.148285 0.000000
					CHANNELS 3 Xrotation Zrotation Yrotation 
					End Site
					{
						OFFSET 0.000000 3.148289 0.000000
					}
				}
			}
			JOINT lCollar
			{
				OFFSET 3.422053 6.707223 -0.821293
				CHANNELS 3 Yrotation Zrotation Xrotation 
				JOINT lShldr
				{
					OFFSET 3.285171 0.000000 0.000000
					CHANNELS 3 Zrotation Yrotation Xrotation 
					JOINT lForeArm
					{
						OFFSET 10.129278 0.000000 0.000000
						CHANNELS 3 Yrotation Zrotation Xrotation 
						JOINT lHand
						{
							OFFSET 8.486692 0.000000 0.000000
							CHANNELS 3 Zrotation Yrotation Xrotation 
							End Site
							{
								OFFSET 4.106464 0.000000 0.000000
							}
						}
					}
				}
			}
			JOINT rCollar
			{
				OFFSET -3.558935 6.707223 -0.821293
				CHANNELS 3 Yrotation Zrotation Xrotation 
				JOINT rShldr
				{
					OFFSET -3.148289 0.000000 0.000000
					CHANNELS 3 Zrotation Yrotation Xrotation 
					JOINT rForeArm
					{
						OFFSET -10.266159 0.000000 0.000000
						CHANNELS 3 Yrotation Zrotation Xrotation 
						JOINT rHand
						{
							OFFSET -8.349810 0.000000 0.000000
							CHANNELS 3 Zrotation Yrotation Xrotation 
							End Site
							{
								OFFSET -4.106464 0.000000 0.000000
							}
						}
					}
				}
			}
		}
	}
	JOINT lThigh
	{
		OFFSET 5.338403 -1.642589 1.368821
		CHANNELS 3 Xrotation Zrotation Yrotation 
		JOINT lShin
		{
			OFFSET -2.053232 -20.121670 0.000000
			CHANNELS 3 Xrotation Zrotation Yrotation 
			JOINT lFoot
			{
				OFFSET 0.000000 -19.300380 -1.231939
				CHANNELS 3 Xrotation Yrotation Zrotation 
				End Site
				{
					OFFSET 0.000000 -2.463878 4.653993
				}
			}
		}
	}
	JOINT rThigh
	{
		OFFSET -5.338403 -1.642589 1.368821
		CHANNELS 3 Xrotation Zrotation Yrotation 
		JOINT rShin
		{
			OFFSET 2.053232 -20.121670 0.000000
			CHANNELS 3 Xrotation Zrotation Yrotation 
			JOINT rFoot
			{
				OFFSET 0.000000 -19.300380 -1.231939
				CHANNELS 3 Xrotation Yrotation Zrotation 
				End Site
				{
					OFFSET 0.000000 -2.463878 4.653993
				}
			}
		}
	}
}
MOTION
Frames: 17
Frame Time: 0.049973
0.000000 42.798584 -41.526691 0.000000 0.000000 0.000000 5.998535 0.000000 0.000000 7.999141 0.000000 0.000000 14.999578 -0.000608 -9.804974 0.000000 0.000000 0.000000 -26.002342 12.997977 -10.001873 27.999166 7.159456 -60.004025 -128.022781 4.995743 19.997782 29.800236 -3.001306 -23.000433 -0.000565 2.996469 9.998610 53.997227 10.999093 29.994949 44.997784 3.998946 -20.002344 -30.000906 -0.001250 -5.999732 -47.947384 27.321936 2.301433 100.996109 0.000001 -0.000001 9.998674 0.000000 0.000000 -2.001344 -6.002983 -0.001874 2.999106 0.000000 0.000000 31.998375 0.000000 0.000000 
0.000000 42.798584 -41.526691 0.000000 0.000000 0.000000 5.998535 0.000000 0.000000 7.999141 0.000000 0.000000 14.999545 -0.000598 -9.604866 0.000000 0.000000 0.000000 -26.002342 12.997977 -10.001873 27.999144 7.319280 -60.003979 -128.022781 4.995743 19.997782 29.600388 -3.001341 -23.000444 -0.000565 2.996469 9.998610 53.997227 10.999093 29.994949 44.997784 3.998946 -20.002344 -30.000906 -0.001250 -5.999732 -47.892601 27.645367 2.604747 100.996109 0.000001 -0.000001 9.998674 0.000000 0.000000 -2.001344 -6.002983 -0.001874 2.999106 0.000000 0.000000 31.998375 0.000000 0.000000 
0.000000 42.798584 -41.526691 0.000000 0.000000 0.000000 5.998535 0.000000 0.000000 7.999141 0.000000 0.000000 14.999517 -0.000588 -9.404742 0.000000 0.000000 0.000000 -26.002342 12.997977 -10.001873 27.999126 7.479123 -60.003944 -128.022781 4.995743 19.997782 29.400509 -3.001375 -23.000456 -0.000565 2.996469 9.998610 53.997227 10.999093 29.994949 44.997784 3.998946 -20.002344 -30.000906 -0.001250 -5.999732 -47.835716 27.968639 2.909405 100.996109 0.000001 -0.000001 9.998674 0.000000 0.000000 -2.001344 -6.002983 -0.001874 2.999106 0.000000 0.000000 31.998375 0.000000 0.000000 
0.000000 42.798584 -41.526691 0.000000 0.000000 0.000000 5.998535 0.000000 0.000000 7.999141 0.000000 0.000000 14.999488 -0.000578 -9.204599 0.000000 0.000000 0.000000 -26.002342 12.997977 -10.001873 27.999105 7.638977 -60.003902 -128.022781 4.995743 19.997782 29.200609 -3.001410 -23.000467 -0.000565 2.996469 9.998610 53.997227 10.999093 29.994949 44.997784 3.998946 -20.002344 -30.000906 -0.001250 -5.999732 -47.776672 28.291714 3.215429 100.996109 0.000001 -0.000001 9.998674 0.000000 0.000000 -2.001344 -6.002983 -0.001874 2.999106 0.000000 0.000000 31.998375 0.000000 0.000000 
0.000000 42.798584 -41.526691 0.000000 0.000000 0.000000 5.998535 0.000000 0.000000 7.999141 0.000000 0.000000 14.999461 -0.000568 -9.004440 0.000000 0.000000 0.000000 -26.002342 12.997977 -10.001873 27.999083 7.798844 -60.003860 -128.022781 4.995743 19.997782 29.000679 -3.001444 -23.000475 -0.000565 2.996469 9.998610 53.997227 10.999093 29.994949 44.997784 3.998946 -20.002344 -30.000906 -0.001250 -5.999732 -47.715492 28.614597 3.522844 100.996109 0.000001 -0.000001 9.998674 0.000000 0.000000 -2.001344 -6.002983 -0.001874 2.999106 0.000000 0.000000 31.998375 0.000000 0.000000 
0.000000 42.798584 -41.526691 0.000000 0.000000 0.000000 5.998535 0.000000 0.000000 7.999141 0.000000 0.000000 14.999431 -0.000557 -8.804265 0.000000 0.000000 0.000000 -26.002342 12.997977 -10.001873 27.999062 7.958724 -60.003822 -128.022781 4.995743 19.997782 28.800730 -3.001477 -23.000486 -0.000565 2.996469 9.998610 53.997227 10.999093 29.994949 44.997784 3.998947 -20.002346 -30.000906 -0.001250 -5.999732 -47.652115 28.937244 3.831669 100.996109 0.000001 -0.000001 9.998674 0.000000 0.000000 -2.001344 -6.002983 -0.001874 2.999106 0.000000 0.000000 31.998375 0.000000 0.000000 
0.000000 42.798584 -41.526691 0.000000 0.000000 0.000000 5.998535 0.000000 0.000000 7.999141 0.000000 0.000000 14.999399 -0.000547 -8.604076 0.000000 0.000000 0.000000 -26.002342 12.997977 -10.001873 27.999048 8.118616 -60.003788 -128.022781 4.995743 19.997782 28.600758 -3.001513 -23.000498 -0.000565 2.996469 9.998610 53.997227 10.999093 29.994949 44.997784 3.998946 -20.002344 -30.000906 -0.001250 -5.999732 -47.586536 29.259653 4.141932 100.996109 0.000001 -0.000001 9.998674 0.000000 0.000000 -2.001344 -6.002983 -0.001874 2.999106 0.000000 0.000000 31.998375 0.000000 0.000000 
0.000000 42.798584 -41.526691 0.000000 0.000000 0.000000 5.998535 0.000000 0.000000 7.999141 0.000000 0.000000 14.999372 -0.000536 -8.403876 0.000000 0.000000 0.000000 -26.002342 12.997977 -10.001873 27.999022 8.278520 -60.003738 -128.022781 4.995743 19.997782 28.400753 -3.001547 -23.000504 -0.000565 2.996469 9.998610 53.997227 10.999093 29.994949 44.997784 3.998946 -20.002344 -30.000906 -0.001250 -5.999732 -47.518734 29.581793 4.453649 100.996109 0.000001 -0.000001 9.998674 0.000000 0.000000 -2.001344 -6.002983 -0.001874 2.999106 0.000000 0.000000 31.998375 0.000000 0.000000 
0.000000 42.798584 -41.526691 0.000000 0.000000 0.000000 5.998535 0.000000 0.000000 7.999141 0.000000 0.000000 14.999338 -0.000525 -8.203660 0.000000 0.000000 0.000000 -26.002342 12.997977 -10.001873 27.999002 8.438433 -60.003696 -128.022781 4.995743 19.997782 28.200739 -3.001582 -23.000519 -0.000565 2.996469 9.998610 53.997227 10.999093 29.994949 44.997784 3.998947 -20.002346 -30.000906 -0.001250 -5.999732 -47.448685 29.903648 4.766848 100.996109 0.000001 -0.000001 9.998674 0.000000 0.000000 -2.001344 -6.002983 -0.001874 2.999106 0.000000 0.000000 31.998375 0.000000 0.000000 
0.000000 42.798584 -41.526691 0.000000 0.000000 0.000000 5.998535 0.000000 0.000000 7.999141 0.000000 0.000000 14.999314 -0.000515 -8.003438 0.000000 0.000000 0.000000 -26.002342 12.997977 -10.001873 27.998980 8.598354 -60.003651 -128.022781 4.995743 19.997782 28.000706 -3.001615 -23.000530 -0.000565 2.996469 9.998610 53.997227 10.999093 29.994949 44.997784 3.998946 -20.002344 -30.000906 -0.001250 -5.999732 -47.376362 30.225185 5.081554 100.996109 0.000001 -0.000001 9.998674 0.000000 0.000000 -2.001344 -6.002983 -0.001874 2.999106 0.000000 0.000000 31.998375 0.000000 0.000000 
0.000000 42.798584 -41.526691 0.000000 0.000000 0.000000 5.998535 0.000000 0.000000 7.999141 0.000000 0.000000 14.999285 -0.000504 -7.803206 0.000000 0.000000 0.000000 -26.002342 12.997977 -10.001873 27.998964 8.758288 -60.003616 -128.022781 4.995743 19.997782 27.800644 -3.001649 -23.000536 -0.000565 2.996469 9.998610 53.997227 10.999093 29.994949 44.997784 3.998946 -20.002344 -30.000906 -0.001250 -5.999732 -47.301750 30.546410 5.397790 100.996109 0.000001 -0.000001 9.998674 0.000000 0.000000 -2.001344 -6.002983 -0.001874 2.999106 0.000000 0.000000 31.998375 0.000000 0.000000 
0.000000 42.798584 -41.526691 0.000000 0.000000 0.000000 5.998535 0.000000 0.000000 7.999141 0.000000 0.000000 14.999254 -0.000493 -7.602965 0.000000 0.000000 0.000000 -26.002342 12.997977 -10.001873 27.998945 8.918231 -60.003582 -128.022781 4.995743 19.997782 27.600573 -3.001685 -23.000547 -0.000565 2.996469 9.998610 53.997227 10.999093 29.994949 44.997784 3.998946 -20.002344 -30.000906 -0.001250 -5.999732 -47.224815 30.867279 5.715580 100.996109 0.000001 -0.000001 9.998674 0.000000 0.000000 -2.001344 -6.002983 -0.001874 2.999106 0.000000 0.000000 31.998375 0.000000 0.000000 
0.000000 42.798584 -41.526691 0.000000 0.000000 0.000000 5.998535 0.000000 0.000000 7.999141 0.000000 0.000000 14.999226 -0.000482 -7.402717 0.000000 0.000000 0.000000 -26.002342 12.997977 -10.001873 27.998926 9.078183 -60.003540 -128.022781 4.995743 19.997782 27.400488 -3.001720 -23.000559 -0.000565 2.996469 9.998610 53.997227 10.999093 29.994949 44.997784 3.998946 -20.002344 -30.000906 -0.001250 -5.999732 -47.145546 31.187782 6.034949 100.996109 0.000001 -0.000001 9.998674 0.000000 0.000000 -2.001344 -6.002983 -0.001874 2.999106 0.000000 0.000000 31.998375 0.000000 0.000000 
0.000000 42.798584 -41.526691 0.000000 0.000000 0.000000 5.998535 0.000000 0.000000 7.999141 0.000000 0.000000 14.999196 -0.000470 -7.202465 0.000000 0.000000 0.000000 -26.002342 12.997977 -10.001873 27.998905 9.238139 -60.003498 -128.022781 4.995743 19.997782 27.200375 -3.001755 -23.000561 -0.000565 2.996469 9.998610 53.997227 10.999093 29.994949 44.997784 3.998947 -20.002346 -30.000906 -0.001250 -5.999732 -47.063900 31.507893 6.355925 100.996109 0.000001 -0.000001 9.998674 0.000000 0.000000 -2.001344 -6.002983 -0.001874 2.999106 0.000000 0.000000 31.998375 0.000000 0.000000 
0.000000 42.798584 -41.526691 0.000000 0.000000 0.000000 5.998535 0.000000 0.000000 7.999141 0.000000 0.000000 14.999169 -0.000459 -7.002208 0.000000 0.000000 0.000000 -26.002342 12.997977 -10.001873 27.998886 9.398103 -60.003460 -128.022781 4.995743 19.997782 27.000259 -3.001789 -23.000572 -0.000565 2.996469 9.998610 53.997227 10.999093 29.994949 44.997784 3.998946 -20.002344 -30.000906 -0.001250 -5.999732 -46.979885 31.827599 6.678530 100.996109 0.000001 -0.000001 9.998674 0.000000 0.000000 -2.001344 -6.002983 -0.001874 2.999106 0.000000 0.000000 31.998375 0.000000 0.000000 
0.000000 42.798584 -41.526691 0.000000 0.000000 0.000000 5.998535 0.000000 0.000000 7.999141 0.000000 0.000000 14.999140 -0.000448 -6.801948 0.000000 0.000000 0.000000 -26.002342 12.997977 -10.001873 27.998863 9.558072 -60.003410 -128.022781 4.995743 19.997782 26.800131 -3.001824 -23.000578 -0.000565 2.996469 9.998610 53.997227 10.999093 29.994949 44.997784 3.998946 -20.002344 -30.000906 -0.001250 -5.999732 -46.893452 32.146870 7.002788 100.996109 0.000001 -0.000001 9.998674 0.000000 0.000000 -2.001344 -6.002983 -0.001874 2.999106 0.000000 0.000000 31.998375 0.000000 0.000000 
0.000000 42.798584 -41.526691 0.000000 0.000000 0.000000 5.998535 0.000000 0.000000 7.999141 0.000000 0.000000 14.999107 -0.000436 -6.601685 0.000000 0.000000 0.000000 -26.002342 12.997977 -10.001873 27.998846 9.718050 -60.003376 -128.022781 4.995743 19.997782 26.599989 -3.001858 -23.000589 -0.000565 2.996469 9.998610 53.997227 10.999093 29.994949 44.997784 3.998946 -20.002344 -30.000906 -0.001250 -5.999732 -46.804588 32.465694 7.328735 100.996109 0.000001 -0.000001 9.998674 0.000000 0.000000 -2.001344 -6.002983 -0.001874 2.999106 0.000000 0.000000 31.998375 0.000000 0.000000 
